<svg id="visual" viewBox="0 0 900 900" width="900" height="900" xmlns="http://www.w3.org/2000/svg" xmlns:xlink="http://www.w3.org/1999/xlink" version="1.1"><path d="M0 127L13.7 127C27.3 127 54.7 127 82 121C109.3 115 136.7 103 163.8 97C191 91 218 91 245.2 97C272.3 103 299.7 115 327 122.5C354.3 130 381.7 133 409 137.5C436.3 142 463.7 148 491 151C518.3 154 545.7 154 573 143.5C600.3 133 627.7 112 654.8 97C682 82 709 73 736.2 82C763.3 91 790.7 118 818 130C845.3 142 872.7 139 886.3 137.5L900 136L900 0L886.3 0C872.7 0 845.3 0 818 0C790.7 0 763.3 0 736.2 0C709 0 682 0 654.8 0C627.7 0 600.3 0 573 0C545.7 0 518.3 0 491 0C463.7 0 436.3 0 409 0C381.7 0 354.3 0 327 0C299.7 0 272.3 0 245.2 0C218 0 191 0 163.8 0C136.7 0 109.3 0 82 0C54.7 0 27.3 0 13.7 0L0 0Z" fill="#6198ff"></path><path d="M0 397L13.7 382C27.3 367 54.7 337 82 308.5C109.3 280 136.7 253 163.8 260.5C191 268 218 310 245.2 346C272.3 382 299.7 412 327 407.5C354.3 403 381.7 364 409 349C436.3 334 463.7 343 491 368.5C518.3 394 545.7 436 573 421C600.3 406 627.7 334 654.8 299.5C682 265 709 268 736.2 268C763.3 268 790.7 265 818 272.5C845.3 280 872.7 298 886.3 307L900 316L900 134L886.3 135.5C872.7 137 845.3 140 818 128C790.7 116 763.3 89 736.2 80C709 71 682 80 654.8 95C627.7 110 600.3 131 573 141.5C545.7 152 518.3 152 491 149C463.7 146 436.3 140 409 135.5C381.7 131 354.3 128 327 120.5C299.7 113 272.3 101 245.2 95C218 89 191 89 163.8 95C136.7 101 109.3 113 82 119C54.7 125 27.3 125 13.7 125L0 125Z" fill="#3c80ff"></path><path d="M0 604L13.7 589C27.3 574 54.7 544 82 523C109.3 502 136.7 490 163.8 499C191 508 218 538 245.2 560.5C272.3 583 299.7 598 327 593.5C354.3 589 381.7 565 409 533.5C436.3 502 463.7 463 491 478C518.3 493 545.7 562 573 562C600.3 562 627.7 493 654.8 472C682 451 709 478 736.2 482.5C763.3 487 790.7 469 818 466C845.3 463 872.7 475 886.3 481L900 487L900 314L886.3 305C872.7 296 845.3 278 818 270.5C790.7 263 763.3 266 736.2 266C709 266 682 263 654.8 297.5C627.7 332 600.3 404 573 419C545.7 434 518.3 392 491 366.5C463.7 341 436.3 332 409 347C381.7 362 354.3 401 327 405.5C299.7 410 272.3 380 245.2 344C218 308 191 266 163.8 258.5C136.7 251 109.3 278 82 306.5C54.7 335 27.3 365 13.7 380L0 395Z" fill="#0066ff"></path><path d="M0 739L13.7 739C27.3 739 54.7 739 82 755.5C109.3 772 136.7 805 163.8 811C191 817 218 796 245.2 779.5C272.3 763 299.7 751 327 745C354.3 739 381.7 739 409 746.5C436.3 754 463.7 769 491 785.5C518.3 802 545.7 820 573 826C600.3 832 627.7 826 654.8 806.5C682 787 709 754 736.2 739C763.3 724 790.7 727 818 728.5C845.3 730 872.7 730 886.3 730L900 730L900 485L886.3 479C872.7 473 845.3 461 818 464C790.7 467 763.3 485 736.2 480.5C709 476 682 449 654.8 470C627.7 491 600.3 560 573 560C545.7 560 518.3 491 491 476C463.7 461 436.3 500 409 531.5C381.7 563 354.3 587 327 591.5C299.7 596 272.3 581 245.2 558.5C218 536 191 506 163.8 497C136.7 488 109.3 500 82 521C54.7 542 27.3 572 13.7 587L0 602Z" fill="#0059dd"></path><path d="M0 901L13.7 901C27.3 901 54.7 901 82 901C109.3 901 136.7 901 163.8 901C191 901 218 901 245.2 901C272.3 901 299.7 901 327 901C354.3 901 381.7 901 409 901C436.3 901 463.7 901 491 901C518.3 901 545.7 901 573 901C600.3 901 627.7 901 654.8 901C682 901 709 901 736.2 901C763.3 901 790.7 901 818 901C845.3 901 872.7 901 886.3 901L900 901L900 728L886.3 728C872.7 728 845.3 728 818 726.5C790.7 725 763.3 722 736.2 737C709 752 682 785 654.8 804.5C627.7 824 600.3 830 573 824C545.7 818 518.3 800 491 783.5C463.7 767 436.3 752 409 744.5C381.7 737 354.3 737 327 743C299.7 749 272.3 761 245.2 777.5C218 794 191 815 163.8 809C136.7 803 109.3 770 82 753.5C54.7 737 27.3 737 13.7 737L0 737Z" fill="#004cbb"></path></svg>