<svg id="visual" viewBox="0 0 900 675" width="900" height="675" xmlns="http://www.w3.org/2000/svg" xmlns:xlink="http://www.w3.org/1999/xlink" version="1.1"><path d="M0 96L13.7 96C27.3 96 54.7 96 82 91.5C109.3 87 136.7 78 163.8 73.5C191 69 218 69 245.2 73.5C272.3 78 299.7 87 327 92.5C354.3 98 381.7 100 409 103.3C436.3 106.7 463.7 111.3 491 113.7C518.3 116 545.7 116 573 108.2C600.3 100.3 627.7 84.7 654.8 73.3C682 62 709 55 736.2 61.7C763.3 68.3 790.7 88.7 818 97.7C845.3 106.7 872.7 104.3 886.3 103.2L900 102L900 0L886.3 0C872.7 0 845.3 0 818 0C790.7 0 763.3 0 736.2 0C709 0 682 0 654.8 0C627.7 0 600.3 0 573 0C545.7 0 518.3 0 491 0C463.7 0 436.3 0 409 0C381.7 0 354.3 0 327 0C299.7 0 272.3 0 245.2 0C218 0 191 0 163.8 0C136.7 0 109.3 0 82 0C54.7 0 27.3 0 13.7 0L0 0Z" fill="#6198ff"></path><path d="M0 298L13.7 286.8C27.3 275.7 54.7 253.3 82 232C109.3 210.7 136.7 190.3 163.8 195.8C191 201.3 218 232.7 245.2 259.7C272.3 286.7 299.7 309.3 327 306C354.3 302.7 381.7 273.3 409 262C436.3 250.7 463.7 257.3 491 276.5C518.3 295.7 545.7 327.3 573 316.2C600.3 305 627.7 251 654.8 225.2C682 199.3 709 201.7 736.2 201.7C763.3 201.7 790.7 199.3 818 204.8C845.3 210.3 872.7 223.7 886.3 230.3L900 237L900 100L886.3 101.2C872.7 102.3 845.3 104.7 818 95.7C790.7 86.7 763.3 66.3 736.2 59.7C709 53 682 60 654.8 71.3C627.7 82.7 600.3 98.3 573 106.2C545.7 114 518.3 114 491 111.7C463.7 109.3 436.3 104.7 409 101.3C381.7 98 354.3 96 327 90.5C299.7 85 272.3 76 245.2 71.5C218 67 191 67 163.8 71.5C136.7 76 109.3 85 82 89.5C54.7 94 27.3 94 13.7 94L0 94Z" fill="#3c80ff"></path><path d="M0 453L13.7 441.8C27.3 430.7 54.7 408.3 82 392.7C109.3 377 136.7 368 163.8 374.7C191 381.3 218 403.7 245.2 420.5C272.3 437.3 299.7 448.7 327 445.3C354.3 442 381.7 424 409 400.3C436.3 376.7 463.7 347.3 491 358.5C518.3 369.7 545.7 421.3 573 421.3C600.3 421.3 627.7 369.7 654.8 354C682 338.3 709 358.7 736.2 362.2C763.3 365.7 790.7 352.3 818 350.2C845.3 348 872.7 357 886.3 361.5L900 366L900 235L886.3 228.3C872.7 221.7 845.3 208.3 818 202.8C790.7 197.3 763.3 199.7 736.2 199.7C709 199.7 682 197.3 654.8 223.2C627.7 249 600.3 303 573 314.2C545.7 325.3 518.3 293.7 491 274.5C463.7 255.3 436.3 248.7 409 260C381.7 271.3 354.3 300.7 327 304C299.7 307.3 272.3 284.7 245.2 257.7C218 230.7 191 199.3 163.8 193.8C136.7 188.3 109.3 208.7 82 230C54.7 251.3 27.3 273.7 13.7 284.8L0 296Z" fill="#0066ff"></path><path d="M0 555L13.7 555C27.3 555 54.7 555 82 567.3C109.3 579.7 136.7 604.3 163.8 608.8C191 613.3 218 597.7 245.2 585.3C272.3 573 299.7 564 327 559.5C354.3 555 381.7 555 409 560.5C436.3 566 463.7 577 491 589.3C518.3 601.7 545.7 615.3 573 619.8C600.3 624.3 627.7 619.7 654.8 605C682 590.3 709 565.7 736.2 554.5C763.3 543.3 790.7 545.7 818 546.8C845.3 548 872.7 548 886.3 548L900 548L900 364L886.3 359.5C872.7 355 845.3 346 818 348.2C790.7 350.3 763.3 363.7 736.2 360.2C709 356.7 682 336.3 654.8 352C627.7 367.7 600.3 419.3 573 419.3C545.7 419.3 518.3 367.7 491 356.5C463.7 345.3 436.3 374.7 409 398.3C381.7 422 354.3 440 327 443.3C299.7 446.7 272.3 435.3 245.2 418.5C218 401.7 191 379.3 163.8 372.7C136.7 366 109.3 375 82 390.7C54.7 406.3 27.3 428.7 13.7 439.8L0 451Z" fill="#0059dd"></path><path d="M0 676L13.7 676C27.3 676 54.7 676 82 676C109.3 676 136.7 676 163.8 676C191 676 218 676 245.2 676C272.3 676 299.7 676 327 676C354.3 676 381.7 676 409 676C436.3 676 463.7 676 491 676C518.3 676 545.7 676 573 676C600.3 676 627.7 676 654.8 676C682 676 709 676 736.2 676C763.3 676 790.7 676 818 676C845.3 676 872.7 676 886.3 676L900 676L900 546L886.3 546C872.7 546 845.3 546 818 544.8C790.7 543.7 763.3 541.3 736.2 552.5C709 563.7 682 588.3 654.8 603C627.7 617.7 600.3 622.3 573 617.8C545.7 613.3 518.3 599.7 491 587.3C463.7 575 436.3 564 409 558.5C381.7 553 354.3 553 327 557.5C299.7 562 272.3 571 245.2 583.3C218 595.7 191 611.3 163.8 606.8C136.7 602.3 109.3 577.7 82 565.3C54.7 553 27.3 553 13.7 553L0 553Z" fill="#004cbb"></path></svg>